<svg xmlns="http://www.w3.org/2000/svg" xmlns:xlink="http://www.w3.org/1999/xlink" preserveAspectRatio="xMidYMid" width="24" height="24" viewBox="0 0 24 24">
  <defs>
    <style>

      .cls-2 {
        fill: #ffffff;
      }
    </style>
  </defs>
  <path d="M13.305,11.946 C13.305,11.946 23.521,22.201 23.521,22.201 C23.909,22.590 23.909,23.221 23.521,23.610 C23.327,23.804 23.073,23.901 22.819,23.901 C22.565,23.901 22.311,23.804 22.117,23.610 C22.117,23.610 11.901,13.355 11.901,13.355 C11.901,13.355 1.685,23.610 1.685,23.610 C1.491,23.804 1.237,23.901 0.983,23.901 C0.729,23.901 0.475,23.804 0.281,23.610 C-0.106,23.221 -0.106,22.590 0.281,22.201 C0.281,22.201 10.497,11.946 10.497,11.946 C10.497,11.946 0.281,1.692 0.281,1.692 C-0.106,1.303 -0.106,0.672 0.281,0.283 C0.669,-0.106 1.297,-0.106 1.685,0.283 C1.685,0.283 11.901,10.537 11.901,10.537 C11.901,10.537 22.116,0.283 22.116,0.283 C22.504,-0.106 23.132,-0.106 23.520,0.283 C23.908,0.672 23.908,1.303 23.520,1.692 C23.520,1.692 13.305,11.946 13.305,11.946 Z" id="path-1" class="cls-2" fill-rule="evenodd"/>
</svg>
